<?xml version="1.0" encoding="utf-8"?>
<!-- Generator: Adobe Illustrator 24.3.0, SVG Export Plug-In . SVG Version: 6.00 Build 0)  -->
<svg version="1.1" id="Capa_1" xmlns="http://www.w3.org/2000/svg" xmlns:xlink="http://www.w3.org/1999/xlink" x="0px" y="0px"
	 viewBox="0 0 400 300" style="enable-background:new 0 0 400 300;" xml:space="preserve">
<style type="text/css">
	.st0{fill:#red;}
	.st1{fill:green;stroke:#E6007E;stroke-width:2;stroke-miterlimit:10;}
	.st2{fill:url(#SVGID_1_);}
</style>
<g>
	<g>
		<g>
			<g>
				<g>
					<path class="st0" d="M272.31,200.75c2.87-1.35,1.66-1.23,2.05-1.51C269.65,201.65,272.48,200.79,272.31,200.75z"/>
					<path class="st0" d="M223.82,220.47l0.84-0.43c-2.43,0.86-4.88,1.7-7.33,2.5C219.51,221.88,221.67,221.18,223.82,220.47z"/>
					<path class="st0" d="M189.08,203.35c0.35,1.18,0.95,2.81,1.63,4.74c0.69,1.93,1.48,4.14,2.48,6.35
						c0.99,2.2,2.23,4.39,3.83,6.06c1.58,1.7,3.54,2.75,5.43,3.34c0.41,0.14,0.82,0.33,1.26,0.43c1.23,0.01,2.46-0.12,3.68-0.37
						c-2.46,0.13-5.07-0.16-7.31-1.35c-0.56-0.29-1.06-0.7-1.6-1.03c-0.5-0.4-0.96-0.87-1.44-1.3c-0.41-0.52-0.85-1.01-1.24-1.55
						c-0.36-0.57-0.75-1.11-1.07-1.7c-1.33-2.36-2.28-4.92-3.15-7.28C190.69,207.32,189.86,205.14,189.08,203.35z"/>
					<path class="st0" d="M164.8,193.14c0.87-0.14-0.56,0.39-0.69,0.46c-0.07,0.03,0.16-0.08,1.17-0.43
						c1.02-0.33,2.76-1.03,6.07-1.53c-0.68,0.04-0.85,0.09-1.24,0.12C168.92,191.96,167.34,192.31,164.8,193.14z"/>
					<path class="st0" d="M170.1,191.76c1.42-0.27,1.95-0.27,1.91-0.31c-0.03-0.01-0.58,0.02-1.19,0.09
						C169.63,191.72,168.2,191.98,170.1,191.76z"/>
					<path class="st0" d="M147.26,200.87c2.05-0.94,4.08-1.92,6.11-2.92c-1.35,0.45-6.89,2.78-4.88,1.79
						C142.14,202.53,143.51,202.12,147.26,200.87z"/>
					<path class="st0" d="M141.51,203.76c1.08-0.46,2.15-0.92,3.22-1.4C144.13,202.53,143.27,202.86,141.51,203.76z"/>
					<path class="st0" d="M151.5,199.26c-2.24,1.06-4.5,2.1-6.77,3.1c0.95-0.26,1.14-0.08,3.13-1.38
						C147.38,201.41,148.66,200.66,151.5,199.26z"/>
					<path class="st0" d="M155.39,197.63c1.74-0.71,3.83-1.61,4.66-1.88c0.85-0.27,0.4-0.03-2.71,1.54
						c5.97-2.86,8.87-3.75,8.32-3.74c-0.26,0.02-1.35,0.3-3.13,0.96C160.76,195.15,158.31,196.25,155.39,197.63z"/>
					<path class="st0" d="M187.2,201.38c0.46,0.76,0.75,1.59,1.14,2.37c0.32,0.81,0.64,1.62,0.93,2.43
						c0.62,1.36,1.21,2.73,1.79,4.09c-0.44-1.01-1.21-3.37-2.06-5.4C188.19,202.83,187.23,201.17,187.2,201.38z"/>
					<path class="st0" d="M107.26,213.58c-0.37,0.23,2.26-0.08,2.79-0.02c1.57-0.44,3.17-0.94,4.76-1.43
						c-1.25,0.28-3.07,0.73-4.58,1.03C108.7,213.47,107.44,213.64,107.26,213.58z"/>
					<path class="st0" d="M110.04,213.56c-2.36,0.65-4.74,1.23-7.14,1.67c3.23-0.46,5.12-0.96,6.15-1.23
						C110.09,213.72,110.26,213.58,110.04,213.56z"/>
					<path class="st0" d="M140.67,204.94c3.77-1.65,7.5-3.39,11.19-5.21c-4.41,2.14-8.88,4.16-13.41,6.06L140.67,204.94z"/>
					<path class="st0" d="M81.79,211.35c1.06,0.57,2.16,1.05,3.32,1.39c-2.05-0.65-3.96-1.64-5.61-3.03l1.1,0.89L81.79,211.35z"/>
					<path class="st0" d="M73.15,197.25c0.56,1.42,0.39,0.38,0.22-0.62c-0.16-1.02-0.33-2.01,0.18-0.48
						c-1.3-4.81-2.6-9.34-4.03-13.14c0.32,1.04,0.65,2.09,0.99,3.18c0.29,1.1,0.59,2.24,0.91,3.42
						C72,191.98,72.51,194.52,73.15,197.25z"/>
					<path class="st0" d="M67.08,176.6c0.78,2.02,1.6,4.11,2.44,6.42C68.78,180.83,67.99,178.7,67.08,176.6z"/>
					<path class="st0" d="M90.75,215.42c-0.5-0.21-1.6-0.38-5.11-1.67c0.79,0.39,1.57,0.86,2.43,1.16c0.4,0.09,0.83,0.21,1.28,0.29
						C89.81,215.28,90.28,215.35,90.75,215.42z"/>
					<path class="st0" d="M88.16,214.95l-0.09-0.03c-0.73-0.14-1.36-0.36-1.94-0.56c-0.29-0.1-0.57-0.19-0.83-0.27
						c-0.25-0.11-0.48-0.21-0.7-0.31c-0.44-0.19-0.82-0.36-1.14-0.5c-0.3-0.17-0.54-0.32-0.73-0.42c0.16,0.09,0.37,0.21,0.64,0.37
						c0.28,0.15,0.65,0.29,1.08,0.49c0.43,0.2,0.93,0.43,1.56,0.62C86.62,214.52,87.32,214.78,88.16,214.95z"/>
					<path class="st0" d="M91.44,215.52c-0.25-0.03-0.44-0.07-0.68-0.1C91.01,215.5,91.16,215.55,91.44,215.52z"/>
					<path class="st0" d="M121.93,210.98c-4.14,1.54-12.98,4.16-4.28,2.16C120.61,211.97,115.67,213.21,121.93,210.98z"/>
					<path class="st0" d="M94.88,216.26c2.55,0.06,5.14-0.09,7.72-0.42c-0.17-0.1-1.58-0.07,0.51-0.48
						C100.38,215.86,97.62,216.2,94.88,216.26z"/>
					<path class="st0" d="M91.14,216.16c1.24,0.07,2.48,0.14,3.74,0.1l-1.42-0.05l-1.4-0.13C91.75,216.1,91.44,216.15,91.14,216.16z
						"/>
					<path class="st0" d="M70.73,190.12c-1.06-3.37-2.12-7.08-3.52-11.2c1.41,4.44,2.66,9.13,3.73,13.53
						C71.22,193.03,71.94,194.92,70.73,190.12z"/>
					<path class="st0" d="M75.69,205.7c-0.11-0.19-0.25-0.43-0.35-0.61C75.51,205.49,75.66,205.81,75.69,205.7z"/>
					<path class="st0" d="M48.16,140.7c0.11,0.21,0.21,0.4,0.32,0.61c0.05,0.03,0.09,0.05,0.15,0.09L48.16,140.7z"/>
					<path class="st0" d="M71.05,193.22c0.74,3.35,1.39,5.25,2.11,6.99c-0.83-2.32-1.51-4.91-2.21-7.75
						C70.81,192.19,70.76,192.16,71.05,193.22z"/>
					<path class="st0" d="M62.49,165.52c0.64,1.72,1.4,3.65,2.12,5.71C64.1,169.51,62.85,166.07,62.49,165.52z"/>
					<path class="st0" d="M74.97,204.09c0.07,0.14,0.14,0.27,0.22,0.42C74.84,203.53,74.85,203.67,74.97,204.09z"/>
					<path class="st0" d="M74.97,204.09c-0.75-1.44-1.31-2.64-1.82-3.88c0.67,1.89,1.42,3.55,2.19,4.88
						C75.18,204.74,75.05,204.37,74.97,204.09z"/>
					<path class="st0" d="M38.43,131.89c0.33,0.14,1.89,2,3.94,4.62c2.05,2.61,4.49,6.09,6.43,9.5c2.21,3.16,2.84,3.57,2.65,2.34
						c-0.1-0.61-0.43-1.61-0.95-2.84c-0.5-1.24-1.2-2.69-2.01-4.2c-0.29-0.08-0.36-0.1-5.25-6.38c0.72,1.17,3.27,4.82,4.94,7.61
						c1.7,2.77,2.61,4.61,0.66,1.86c-1.51-2.17-2.57-3.7-3.38-4.83c-0.79-1.14-1.31-1.89-1.71-2.51c-0.8-1.25-1.17-1.97-2.58-4.09
						c1.08,1.89-1.06-0.68-3.26-3.51c-2.22-2.82-4.32-6.05-4.06-4.88c1.62,2.63,3.41,5.13,5.27,7.58
						C39.11,132.37,37.04,129.73,38.43,131.89z"/>
					<path class="st0" d="M56.43,154.43c0.55,0.96,1.08,1.93,1.59,2.91c-1.68-3.38-2.83-5.84-5.17-10.27
						c-3.09-4.6-3.92-5.41-4.23-5.67c3.04,4.51,5.84,9.19,8.39,13.99L56.43,154.43z"/>
					<path class="st0" d="M64.19,170.87c-0.66-1.13-1.84-3.49-2.66-4.99c-0.85-1.48-1.31-2.11-0.52,0.19
						c1.94,4.42,2.59,5.99,3.14,7.07c0.51,1.1,0.92,1.71,1.96,4.42c-5.54-14.63,1.88,4.11-1.92-6.56c1.22,2.83,2.16,5.45,3.02,7.92
						c-0.86-2.7-1.72-5.28-2.6-7.7c0.04,0.14,0.07,0.23,0.11,0.34l0.03,0.07l-0.01-0.01c0.2,0.65,0.25,0.87,0,0.15
						c-0.02-0.05-0.1-0.22-0.13-0.3C64.51,171.4,64.35,171.15,64.19,170.87c-1.61-4.25-0.15-0.71,0.42,0.6
						c0.04,0.04,0.1,0.15,0.13,0.15c0-0.01-0.01-0.04-0.02-0.06c-1.99-4.86-4.23-9.61-6.7-14.23
						C59.48,160.33,61.4,164.03,64.19,170.87z"/>
					<path class="st0" d="M109.93,216.14c-0.48,0.07-0.46,0.03-0.5,0.01C108.46,216.42,108.09,216.54,109.93,216.14z"/>
					<path class="st0" d="M103.65,217.1c1.1-0.24,1.99-0.51,5.55-1.26c3.1-0.59,0.04,0.21,0.22,0.31c2.12-0.6,7.38-2.19,0.66-0.68
						l-1.05,0.3c-3.03,0.62-6.54,1.02-9.14,1.09c-0.65,0.01-1.24,0.02-1.76,0.03c-0.51-0.02-0.95-0.04-1.29-0.06
						c-0.68-0.04-0.96-0.07-0.7-0.1C97.92,217.04,99.51,217.32,103.65,217.1z"/>
					<path class="st0" d="M73.8,204.73c-1.84-3.7-2.94-7.82-4.03-11.97c0.4,2.15,0.8,4.29,1.31,6.4l0.12-0.38
						c1,3.48,1.68,4.72,1.97,5.26C73.51,204.57,73.54,204.37,73.8,204.73z"/>
					<path class="st0" d="M47.47,139.35c0.46,0.39,0.92,0.77,1.37,1.17c-1.62-1.97-3.27-3.89-4.91-5.75
						C45.11,136.27,46.3,137.79,47.47,139.35z"/>
					<path class="st0" d="M37.81,125.8l0.66,0.29c-0.85-1.15-1.64-2.33-2.43-3.51C36.62,123.65,37.18,124.74,37.81,125.8z"/>
					<path class="st0" d="M96.48,103.51l0.82-1.83l0.91-1.79C97.3,101.55,96.83,102.69,96.48,103.51z"/>
					<path class="st0" d="M96.23,132.1l0.53,0.55C95.99,131.49,95.63,131.01,96.23,132.1z"/>
					<path class="st0" d="M346.4,178.7c-0.71,2.54-1.78,5.13-2.6,7.01c-0.86,1.86-1.35,3.06-1.04,2.85l0.98-1.35
						c0.3-0.87,0.64-1.68,0.88-2.46c0.24-0.78,0.47-1.52,0.69-2.23C345.82,181.14,346.06,179.86,346.4,178.7z"/>
					<path class="st0" d="M147.6,252.94c0.53,0.04,1.07,0.09,1.62,0.13c0.67-0.07,1.32-0.15,1.94-0.22c0.62-0.09,1.21-0.2,1.77-0.29
						C151.34,252.79,149.52,252.83,147.6,252.94z"/>
					<path class="st0" d="M143.6,254.58c-2.48-0.17-4.92-0.63-7.37-1.01c0.82,0.14,1.83,0.31,3.04,0.51
						c0.61,0.09,1.27,0.21,1.99,0.3C141.98,254.44,142.76,254.51,143.6,254.58z"/>
					<path class="st0" d="M173.54,80.69c0.28-0.83,0.69-1.56,1.05-2.34c0.42-0.73,0.82-1.49,1.29-2.18
						c-0.62,0.76-1.06,1.46-1.44,2.01c-0.33,0.59-0.59,1.05-0.79,1.4c-0.37,0.73-0.46,1.07-0.47,1.17
						C173.17,80.97,173.58,80.36,173.54,80.69z"/>
					<path class="st0" d="M159.9,72.51c4.71,0.59,8.46,1.05,11.76,1.42C166,73.07,161.44,72.29,159.9,72.51z"/>
					<path class="st0" d="M97.81,115.11c0.22-2.15,0.44-3.08,0.3-3.04c-0.1,0.55-0.19,1.05-0.27,1.47c-0.04,0.43-0.07,0.78-0.1,1.05
						C97.71,115.13,97.73,115.33,97.81,115.11z"/>
					<path class="st0" d="M185.26,75.53c-0.82-0.14-1.63-0.27-2.47-0.41c-3.45-0.37-6.92-0.7-11.13-1.2
						C175.84,74.56,180.62,75.24,185.26,75.53z"/>
					<path class="st0" d="M120.76,194.2c-0.42,0.01-0.93-0.02-1.31-0.04C119.33,194.21,119.91,194.23,120.76,194.2z"/>
					<path class="st0" d="M134.79,160.5c1.46-0.45,3.8-1.32,6-2.14c-0.54,0.18-1.26,0.44-2.23,0.8c-0.48,0.18-1.03,0.39-1.65,0.62
						C136.27,160,135.57,160.24,134.79,160.5z"/>
					<path class="st0" d="M58.73,75.35C55.86,77.17,58.28,75.65,58.73,75.35L58.73,75.35z"/>
					<path class="st0" d="M44.37,84.32c0.52-0.55,0.89-0.98,0.89-1.11C45.12,83.48,44.8,83.86,44.37,84.32z"/>
					<path class="st0" d="M220.52,78.73c0.1,0.02,0.18,0.04,0.3,0.07C219.81,78.49,219.98,78.55,220.52,78.73z"/>
					<path class="st0" d="M54.34,78.01c1.08-0.71,2.33-1.5,3.7-2.32C57.43,76.04,56.27,76.69,54.34,78.01z"/>
					<path class="st0" d="M55.02,77.77c-0.97,0.67-1.73,1.21-2.44,1.74C52.29,79.85,52.6,79.6,55.02,77.77z"/>
					<path class="st0" d="M62.85,73.09c-1.74,0.82-3.3,1.72-4.82,2.59c0.59-0.32,0.84-0.44,0.69-0.33
						C59.58,74.84,60.77,74.1,62.85,73.09z"/>
					<path class="st0" d="M297.63,140.96c-0.08,0.23-0.18,0.5-0.27,0.75c-0.53,1.79-0.72,2.29-0.59,2.01
						C296.85,143.42,297.28,142.37,297.63,140.96z"/>
					<path class="st0" d="M280.6,227.43c0.16,0.08,0.25,0.12,0.39,0.19c-0.15-0.09-0.35-0.21-0.49-0.29L280.6,227.43z"/>
					<path class="st0" d="M270.44,218.23c0.42,0.6,0.9,1.12,1.34,1.62c0.45,0.49,0.82,0.99,1.26,1.41c0.43,0.42,0.84,0.83,1.24,1.23
						c0.2,0.2,0.39,0.39,0.58,0.58c0.21,0.18,0.41,0.35,0.61,0.52c1.57,1.41,3.13,2.6,5.04,3.74c-1.13-1.09-2.13-2.29-2.99-3.52
						C274.92,222.42,272.54,220.49,270.44,218.23z"/>
					<path class="st0" d="M150.91,66.79c-3.04,0.48-6.04,1.18-9.01,1.92c5.2-1.92,9.96-3.01,12.25-3.46
						c2.3-0.47,2.14-0.56-2.23-0.06c-0.13,0.19-0.78,0.46-1.82,0.79c-1.04,0.31-2.45,0.72-4.11,1.21
						c-3.31,0.97-7.57,2.29-11.76,3.91c-4.18,1.62-8.27,3.53-11.26,5.28c-1.5,0.87-2.73,1.68-3.6,2.32
						c-0.86,0.66-1.37,1.14-1.41,1.37c-0.89,0.49-1.75,1.04-2.61,1.59c-0.87,0.54-1.73,1.1-2.55,1.71c1.39-1.09,1.6-1.28,3.02-2.28
						c-1.27,0.79-2.33,1.48-3.19,2.16c-0.87,0.66-1.61,1.22-2.2,1.8c-1.2,1.12-2.04,2.02-2.87,3.07c-0.42,0.52-0.86,1.05-1.36,1.66
						c-0.47,0.63-1.01,1.32-1.66,2.12c-0.65,0.8-1.33,1.78-2.2,2.88c-0.43,0.56-0.84,1.2-1.32,1.87c-0.48,0.67-1,1.39-1.5,2.22
						c-1.48,2.26-2.51,4.32-3.05,5.36c-0.52,1.04-0.63,1.03,0.04-0.71c-1.57,3.74-2.63,7.71-3,11.77c-0.18,1.77-0.28,2.44-0.32,2.23
						c-0.05-0.22-0.04-1.34,0.2-3.1c-0.42,3.09-0.43,6.28,0.12,9.42c0.54,3.13,1.67,6.21,3.38,8.94l-0.1-0.1
						c0.4,0.56,1,1.24,1.63,2.03c0.3,0.41,0.69,0.77,1.08,1.16c0.39,0.38,0.79,0.77,1.19,1.17c0.86,0.72,1.74,1.43,2.57,2.02
						c0.87,0.54,1.63,1.07,2.27,1.43c1.98,1.26,1.46,1,0.55,0.51c-0.93-0.44-2.12-1.35-1.68-0.91c2.92,1.88,6.1,3.17,9.33,4.07
						c1.91,0.75,0.85,0.66-1.54-0.01c-2.38-0.66-6.04-2.25-8.93-4.49c0.9,0.85,1.69,1.59,2.49,2.11c0.78,0.55,1.5,1.04,2.22,1.38
						c0.72,0.35,1.41,0.71,2.14,0.97c0.74,0.25,1.5,0.5,2.34,0.79c0.85,0.22,1.79,0.46,2.87,0.75c1.09,0.2,2.31,0.54,3.74,0.77
						c2.86,0.55,6.55,1.11,11.53,1.57c-3.12-0.12-6.26-0.33-9.42-0.79c4.54,1.32,9.97,1.7,16.87,1.92l-1.27-6.76
						c-2.02,0.73-4.19,1.51-6.54,2.36c0.87-0.28,3.79-1.21,6.63-2.12l1.17,6.26c-5.18-0.43-10.1-1.16-3.32-1.11
						c0.98,0.07,2.06,0.1,3.33,0.13l-0.82-4.38c-2.26,0.87-5.07,2.03-8.56,3.66c-0.23-0.41-5.37,1.75-11.74,4.76l0.16-0.79
						c-3.42,1.71-4.93,2.64-6.07,3.4c-1.15,0.75-1.94,1.35-3.83,2.58c-3.72,2.09-5.95,3.4-7.53,4.25c-1.57,0.84-2.48,1.23-3.43,1.67
						c-1.4,1.04-2.31,1.77-2.86,2.25c-0.55,0.47-0.76,0.68-0.74,0.71c0.04,0.06,0.98-0.58,1.86-1.15c0.9-0.55,1.73-1.04,1.53-0.76
						c-0.19,0.29-1.48,1.26-4.53,4.01c-4.35,3.8-7.61,7.68-10.22,12.32c-2.57,4.62-4.48,10.24-4.37,17.32
						c0.11,8.27-0.51-1.43-0.58,1.54c0.31,2.46,0.74,4.89,1.49,7.2c0.39,1.74,0.11,1.22-0.03,0.95c0.92,2.93,1.14,2.99,1.46,3.47
						c0.17,0.24,0.38,0.57,0.77,1.4c0.37,0.83,0.98,2.13,2.05,4.23c0.88,0.97,2.82,5.41,6.39,10.2c3.48,4.87,8.67,9.87,13.61,12.94
						c2.21,1.83-1.35-0.49-0.79,0.21c3.31,2.27,5.81,3.66,7.78,4.72c1.97,1.05,3.45,1.73,4.85,2.35c1.4,0.61,2.74,1.15,4.51,1.77
						c1.77,0.62,3.96,1.34,7.12,2.1c1.75,0.57,3.53,1.06,5.3,1.6c1.8,0.41,3.6,0.84,5.42,1.21c-7.93-2.05,2.39-0.08,11.37-0.63
						c-1.42-0.08-2.73-0.32-3.88-0.46c-1.15-0.17-2.16-0.26-2.95-0.42c1.18,0.1,2.37,0.1,3.55,0.15l1.77,0.06
						c0.59,0.01,1.18-0.02,1.77-0.03l3.54-0.09l3.53-0.29c1.71,0.01,0.31,0.31-2.01,0.71c0.97-0.11,1.88-0.22,2.6-0.3
						c2.55-0.08,3.17-0.06,2.71,0.18c-0.46,0.22-2.01,0.6-3.84,0.85c-0.88-0.01-1.75-0.03-2.62-0.04c-0.86-0.02-1.72-0.12-2.56-0.17
						c-0.89,0.1-1.76,0.21-2.56,0.3c-0.8,0.1-1.53,0.13-2.13,0.21c-1.19,0.13-1.86,0.3-1.5,0.51c0.47-0.01,1.16,0,1.99,0.01
						c0.41,0.01,0.85,0.02,1.32,0.03c0.47-0.01,0.95-0.02,1.45-0.03c-0.94,0.11-1.54,0.2-1.11,0.26c0.49,0.07,2.01-0.08,4.38-0.24
						c1.1,0.21,2.21,0.36,3.33,0.54l0.78-0.33c6.34-0.31,12.64-1.24,18.82-2.7c6.5-2.08,12.35-4.61,18.83-7.94
						c6.47-3.37,13.6-7.54,22.25-13.69c-4.06,3.4-0.45,1.36-0.34,2.03c-1.3,0.69-2.83,1.58-4.5,2.67c-1.71,1.05-3.58,2.27-5.63,3.52
						c-4.09,2.53-8.92,5.16-14.07,7.3c5.35-2.27,4.29-1.54,2.99-0.81c5.98-2.91,11.71-6.3,17.17-10.01
						c-0.11,0.66,3.77-1.93,8.12-4.76c-1.9,0.71,1.05-1.52,5.1-4.73c4.08-3.18,9.17-7.47,12.07-10.25c0.57-0.1-0.54,1.55-8.2,7.68
						c1.11-0.78,2.1-1.52,3-2.22c0.89-0.72,1.68-1.41,2.42-2.08c1.48-1.32,2.68-2.6,3.88-3.86c2.4-2.52,4.7-5.08,8.77-8.48
						c-1.73,1.64-2.71,2.48-3.28,3.25c3.92-3.97,13.74-13.39,11.66-10.94l-1.68,1.68c2.1-2.04,4.58-4.51,7.22-7.19
						c0.91-0.93,1.86-1.9,2.82-2.88c0.4-0.42,0.81-0.83,1.21-1.26l0.61-0.63l0.31-0.32c0.09-0.08,0.25-0.33,0.2-0.08
						c-0.05,0.96-0.09,1.92-0.1,2.88c0,0.49,0.01,0.97,0.01,1.45c0,0.24,0.01,0.48,0.02,0.72c0.01,0.32,0.02,0.65,0.04,0.96
						c0.14,3.25,0.46,6.29,0.96,8.93c0.51,2.63,1.12,4.85,1.73,6.46c0.31,0.8,0.58,1.47,0.81,1.97c0.26,0.49,0.46,0.82,0.59,0.97
						c-0.02,0.1-0.46-0.3-0.96-0.84c-0.47-0.55-0.98-1.26-1.21-1.71c0.91,2.29,2.15,4.46,3.48,6.51l1.1,1.47l0.55,0.73l0.62,0.68
						l1.23,1.34l1.35,1.21c3.61,3.22,8.1,5.09,12.6,5.81c-1.27,0.03,0.22,1.09,0.54,1.75c0.15,0.32-0.02,0.6-1.08,0.55
						c-0.53-0.01-1.28-0.12-2.32-0.39c-1.03-0.27-2.34-0.71-3.92-1.48c1.77,0.98,3.85,1.92,6.58,2.63c2.72,0.68,6.1,1.14,10.28,0.78
						c-2.76,0.08-6.63-1.24-3.02-1.08c2.46,0.27,4.15,0.22,5.46,0.15c1.31-0.07,2.25-0.21,3.24-0.37c1-0.18,2.06-0.38,3.61-0.8
						c1.55-0.41,3.59-1.01,6.44-2.2c-1.84,0.79-1.87,0.42-0.74-0.43c1.13-0.85,3.33-2.29,5.92-3.94c-0.73,0.66,1.06,0.69-0.83,1.99
						c4.28-3,8.06-6.51,11.53-10.27c-2.7,2.7,0.19,1.24,2.86-1.05c-0.33,0.24,0.12-0.21,0.97-1.12c0.42-0.46,0.93-1.04,1.52-1.7
						c0.59-0.65,1.25-1.36,1.87-2.17c2.68-3.08,5.27-7.14,6.3-8.94l-1.85,2.73l-2,2.61c0.63-0.89,1.23-1.72,1.79-2.51
						c0.5-0.82,0.97-1.59,1.42-2.32c0.91-1.44,1.53-2.81,2.12-4.03c0.61-1.21,1.02-2.36,1.41-3.43c0.4-1.07,0.76-2.08,1.03-3.13
						c0.28-1.04,0.59-2.05,0.87-3.15c0.24-1.11,0.51-2.28,0.82-3.56c0.25-1.3,0.52-2.73,0.83-4.36c0.11-0.82,0.23-1.69,0.35-2.62
						c0.07-0.46,0.14-0.94,0.21-1.44c0.04-0.5,0.07-1.01,0.11-1.54c0.02,0.52,0.1,1.1,0.21,1.56c0.09,0.45,0.21,0.78,0.39,0.76
						c0.35-0.02,0.94-1.4,1.15-5.87c-0.29-2.04-1-6.59-3.06-12.02c-2.07-5.44-5.51-11.62-10.05-17.37
						c-0.44-0.84-0.93-1.65-1.45-2.44c-2.42-2.89-5.12-5.55-7.96-8.03c2.85,2.09,8.15,6.38,12.67,12.2
						c2.32,2.86,4.29,6.16,5.92,9.41c0.38,0.83,0.75,1.65,1.11,2.44c0.37,0.8,0.61,1.62,0.91,2.41c0.62,1.56,0.97,3.1,1.32,4.48
						c-0.45-3.31-0.57-3.76-0.74-4.63c-0.09-0.43-0.21-0.96-0.49-1.99c-0.16-0.5-0.39-1.12-0.68-1.91c-0.3-0.78-0.6-1.76-1.15-2.89
						c-0.6-1.66,0.12-0.5,1.01,1.5c0.4,1.02,0.91,2.22,1.3,3.37c0.34,1.17,0.66,2.25,0.87,2.96c-0.9-3.83-2.33-7.51-4.02-11.03
						c-1.73-3.51-3.86-6.79-6.16-9.91c0.04,0.62-2.77-2.82-5.94-5.87c-3.13-3.1-6.58-5.81-6.43-5.32
						c6.34,5.19,12.12,11.27,16.59,18.42c-0.01,0.3-0.59-0.27-1.6-1.48c-0.98-1.23-2.48-3.03-4.37-5.16
						c-0.96-1.05-1.99-2.22-3.17-3.38c-1.13-1.2-2.42-2.4-3.73-3.65c-2.68-2.46-5.63-5.04-8.75-7.49c-1.51-1.34-0.73-1.13,0.41-0.6
						c1.14,0.53,2.65,1.38,2.59,1.19c-0.44-0.28-1.43-1-2.67-1.93c-1.27-0.88-2.78-2.01-4.32-3.04c-3.05-2.13-6.14-4.05-6.71-4.51
						c0.99,0.54,1.97,1.11,2.94,1.69c0.98,0.57,1.95,1.15,2.91,1.76c-3.6-2.63-6.78-4.43-10.19-6.2c-3.38-1.83-6.97-3.71-11.53-6.46
						c-3.21-1.78-9.46-5.63-10.21-5.55c5.1,3.29,5.06,5.9,1.26,4.72c-0.28-0.15-1.48-0.78-3.17-1.66c-1.71-0.85-3.93-1.94-6.23-3.08
						c-2.33-1.07-4.72-2.23-6.8-3.17c-2.08-0.93-3.81-1.71-4.74-2.17c-5.42-2.69,8.94,1.88,4.34-0.42c-0.28,0.09-3.46-0.9-4.79-1.31
						c-3.57-1.44,1.7,0-6.21-2.73c-0.78,0.11-4.8-1.26-7.12-2.01c-1.16-0.37-1.9-0.6-1.57-0.47c0.32,0.14,1.72,0.6,4.76,1.79
						c-7.83-2.3-8.22-2.78-17.47-5.3c1.42,0.6-0.76,0.42-4.28-0.14c-3.52-0.53-8.4-1.38-12.4-2.13c0.51-0.07-1.23-0.68-2.08-0.97
						c-16.32-3.39-25.15-5.01-40.58-6.96c-1.4-0.34-8.84-1.37-5.63-1.31c-2.24-0.14-4.31-0.1-9.09-0.57
						c-4.6-0.72-1.93-0.5,1.01-0.26c2.94,0.26,6.16,0.54,2.67-0.17c-0.64,0.3-12.42-0.66-19.25-0.92c2.05,0.74,15.72,1.4,22.56,1.93
						c-0.06,0.86-11.98,0.4-28.2-0.35c-12.88-0.67-5.54-0.92-7.79-0.95c-12.09-0.83-17.27-0.71-21.93-0.65
						c-4.66,0.07-8.8,0.12-18.84-0.67c-7.93-0.88-0.32-1.09-2.06-1.55c10.52,0.29,16.11,1.12,23.23,1.46l-8.75-0.7
						c3.35-0.02,10.37,0.21,14.18,0.58c-3.33-0.43-13.56-0.98-25.29-1.56c-5.86-0.3-12.13-0.58-18.08-0.1
						c-2.97,0.25-5.86,0.68-8.54,1.32c-2.69,0.63-5.15,1.5-7.32,2.41c-3.05,1.45-7.8,4.69-5.37,3.46c1.67-1.05,3.41-1.97,5.18-2.82
						c2.58-0.87,0.06,0.31-2.1,1.56c-1.07,0.65-2.08,1.26-2.4,1.53c-0.32,0.27-0.01,0.08,1.64-0.76
						c-6.72,4.02-13.19,10.04-21.02,17.83c-0.62,0.36-1.24,0.73-1.84,1.11c0.14-0.03,1.4-1.32,2.96-2.83
						c1.55-1.52,3.38-3.28,4.46-4.41c-1.58,1.68-4.85,4.46-7.77,7.59c-1.44,1.57-2.8,3.25-3.77,4.9c-0.99,1.64-1.61,3.23-1.83,4.44
						c0.97-2.3,2.37-4.4,3.97-6.34c-2.14,3.18-3.94,7.07-4.04,11.36c-0.15,2.12,0.14,4.32,0.66,6.5c0.49,2.19,1.32,4.36,2.28,6.52
						c-0.34-1.03-0.49-1.68-0.65-2.15c-0.15-0.48-0.3-0.79-0.43-1.18c-0.21-0.77-0.73-1.86-0.89-5.02
						c-0.04,1.38-0.24,0.68-0.53-1.04c-0.07-0.43-0.06-0.92-0.09-1.46c-0.01-0.27-0.02-0.55-0.04-0.84
						c0.02-0.29,0.04-0.58,0.07-0.89c0.04-1.22,0.33-2.52,0.63-3.78c0.69-2.5,2.01-4.74,2.71-5.91c0.34-0.59,0.53-0.92,0.43-0.89
						c-0.1,0.03-0.49,0.42-1.19,1.34c2.12-2.65,4.15-4.81,6.5-7.15c2.38-2.32,5.03-4.87,8.72-7.59c-0.17,0.02-0.85,0.47-0.72,0.28
						c0.15-0.18,1.06-1.1,4.27-3.54c0.25-0.28,0.89-0.84,1.31-1.2c0.2-0.14,0.27-0.19,0.45-0.31c-0.13,0.09-0.23,0.15-0.37,0.24
						c0.26-0.23,0.28-0.25-0.14,0.09c-1.6,1.05-2.88,1.96-3.44,2.28c1.41-1.45,4.68-4.18,8.32-6.38c3.61-2.26,7.58-3.88,9.61-4.61
						c4.59-1.24-1.84,0.77,0.71,0.25c2-0.72,4.08-1.29,6.21-1.72c0.7,0.18,12.7-0.36,1.56,0.81c3.31-0.4,6.7-0.52,10.11-0.48
						c3.01,0.14,6.62,0.39,10.16,0.6c3.54,0.2,6.96,0.35,9.57,0.38c4.92,0.34,12.47,0.14,8.16,0.27l16.38,0.63l0.14,0.12
						c16.12,1.05,33.27,1.53,51.48,4.64c5.4,0.56,10.98,1.18,19.92,2.78l1.68,0.68c3.44,0.51,8.56,1.55,13.17,2.57
						c2.3,0.51,4.49,0.99,6.28,1.39c1.79,0.38,3.2,0.65,3.94,0.74c3.53,1.36,11.69,3.41,20.32,5.96c8.63,2.52,17.71,5.61,23.33,7.95
						l0.62-0.31c7.77,3.16,15.19,6.28,24.51,10.93l-0.36-0.69c2.05,0.94,4.29,2.21,6.75,3.56c1.22,0.7,2.47,1.48,3.76,2.26
						c1.29,0.79,2.64,1.6,3.97,2.5c5.38,3.5,11.02,7.72,16.29,12.35c-0.42-0.25-1.29-0.96-2.29-1.83c-1.01-0.85-2.19-1.82-3.14-2.65
						c6.31,5.56,12.79,11.52,17.75,18.47c4.91,6.91,8.14,14.91,8.33,22.36c0.53,3.66,0.28,6.38-0.04,8.95
						c0.02-0.34,0.04-0.65,0.04-0.92c-0.03,0.38-0.07,0.94-0.12,1.52c-0.16,0.8-0.33,1.62-0.5,2.46c-0.08,0.42-0.17,0.84-0.25,1.27
						c-0.12,0.43-0.23,0.86-0.35,1.3c0.11-0.37,0.23-0.74,0.34-1.1c0.1-0.37,0.16-0.73,0.24-1.09c0.14-0.71,0.28-1.4,0.41-2.03
						c-0.32,2.84-1.22,7.11-2.53,11.2l-1.11,1.53c-0.12,0.32-0.22,0.59-0.34,0.92c-1.83,3.76-1.19,3.17,0.11,1.28
						c-0.41,1-0.81,1.97-1.18,2.86c-0.35,0.9-0.77,1.68-1.07,2.4c-0.59,0.66-1.16,1.64-1.9,2.72c-0.72,1.08-1.41,2.36-2.28,3.58
						c-0.84,1.24-1.69,2.52-2.65,3.62c-0.47,0.56-0.93,1.09-1.39,1.59c-0.47,0.49-0.97,0.9-1.43,1.27
						c-0.77,1.26-4.46,5.25-8.56,8.73c-2.06,1.73-4.19,3.33-5.94,4.56c-1.75,1.23-3.09,2.13-3.51,2.58
						c-0.18-0.03-1.34,0.52,0.73-0.58c-4.29,2.25-8.85,3.79-13.04,4.73c-0.7-0.08-1.39-0.21-2.07-0.33
						c-3.37,0.61-6.88,0.76-10.33,0.24c-3.06-0.89-5-2.02-5.5-2.44c-0.26-0.21-0.16-0.26,0.35-0.12c0.51,0.14,1.44,0.47,2.91,0.83
						c-3.53-0.99-5.77-2.36-7.38-3.51c-0.78-0.63-1.44-1.18-2.03-1.68c-0.54-0.56-1.03-1.06-1.5-1.55
						c-0.87-1.05-1.71-2.04-2.65-3.53c-0.53-0.71-0.95-1.62-1.55-2.64c-0.5-1.07-1.14-2.29-1.69-3.83l0.57,0.48
						c-0.8-2.16-1.57-5.09-2.08-7.85c-0.53-2.76-0.7-5.37-0.61-6.79c0.02-0.61,0.03-1.31,0.05-2.11c0-1.03,0.06-2.24,0.12-3.57
						c0.09-2.64,0.34-5.98,0.57-9.57l-0.1-0.01c-0.02-0.02-0.12,0.11-0.18,0.15l-0.4,0.41c-0.27,0.27-0.54,0.55-0.82,0.83
						c-0.56,0.56-1.12,1.14-1.7,1.72c-1.15,1.17-2.35,2.39-3.59,3.65c-2.07,2.1-4.28,4.33-6.58,6.65
						c-3.97,3.98-8.31,8.26-12.84,12.51c-4.53,4.25-9.27,8.45-14,12.31c-4.73,3.86-9.48,7.33-13.92,10.24
						c2.49-1.05-0.14,0.72-3.55,2.74c-0.85,0.51-1.74,1.04-2.61,1.55c-0.88,0.5-1.73,0.98-2.48,1.43c-0.75,0.45-1.4,0.85-1.87,1.19
						c-0.49,0.32-0.8,0.58-0.86,0.74c-1.52,0.53-4.88,2.23-1.17-0.11c-1.49,0.87-2.89,1.68-4.26,2.36
						c-1.36,0.69-2.63,1.38-3.88,1.92c-1.25,0.56-2.43,1.09-3.57,1.6c-1.16,0.46-2.27,0.9-3.34,1.33c-1.07,0.45-2.13,0.82-3.18,1.2
						c-1.04,0.39-2.07,0.77-3.1,1.15c-2.09,0.67-4.14,1.53-6.4,2.27c-1.59,0.14,2.73-1.14,1.34-0.94c-1.05,0.31-4.14,1.4-5.58,1.51
						c-0.7,0.07-0.22-0.1,0.69-0.35c0.91-0.26,2.24-0.69,3.27-1.02c-3.36,0.96-6.01,1.5-8.05,2.05c-2.06,0.44-3.54,0.82-4.62,1.16
						c-2.17,0.56-2.74,1.04-3.21,1.5c-1.79,0.15-3.36,0.1-4.78,0.16c-0.71,0.02-1.38,0.05-2.03,0.07c-0.65,0-1.27,0-1.88,0
						c-1.21,0-2.37,0.1-3.54,0.1c-1.17,0-2.37,0.04-3.67,0.09c-1.24-0.2-2.87-0.59-3.11-0.71c-0.12-0.07,0.11-0.09,0.91-0.04
						c0.4,0.03,0.94,0.08,1.66,0.14c0.72,0.03,1.61,0.07,2.7,0.11c-2.46-0.03-9.94-0.91-16.61-2.82c-6.7-1.81-12.45-4.66-12.81-4.49
						c-0.66-0.4-2.18-1.2-3.66-2.02c-1.48-0.8-2.91-1.65-3.48-1.97c-4.63-3.01-6.91-5-9.16-6.95c-1.11-0.99-2.21-1.99-3.45-3.26
						c-0.62-0.64-1.32-1.31-2.02-2.13c-0.36-0.4-0.74-0.83-1.14-1.27c-0.38-0.47-0.78-0.96-1.21-1.48c0.6,0.8,1.19,1.6,1.84,2.36
						c-1.71-1.34-3.16-3.11-4.73-5.44c-1.56-2.35-3.2-5.31-4.94-9.3l0.17,0.2c-0.43-1.17-0.8-2.23-1.11-3.2
						c-0.26-0.98-0.54-1.84-0.71-2.64c-0.17-0.79-0.32-1.5-0.45-2.13c-0.11-0.63-0.18-1.2-0.26-1.7c-0.18-1-0.22-1.77-0.28-2.41
						c-0.05-0.64-0.15-1.17-0.14-1.69c-0.01-1.04-0.11-2.09,0.14-4.06c0.25-1.95,0.68-4.92,2.75-9.3c-0.29,0.25-0.56,0.52-0.85,0.79
						c-0.16-1.02,1.71-5.13,5.39-9.36c1.82-2.12,4.04-4.29,6.41-6.31c2.37-2.02,4.87-3.91,7.18-5.63c-1.2,0.71-2.37,1.45-3.52,2.24
						c2.38-2.08,6.25-4.31,10.26-6.15c4.01-1.87,8.15-3.42,11.04-4.7c1.28-0.51-1.91,1.05-3.59,1.98c3.75-1.71,5.79-2.56,6.83-3.08
						c1.06-0.5,1.14-0.65,1.09-0.77c-0.09-0.22-0.73-0.37,4.96-2.86c2.25-0.56-2.41,1.91,5.36-1.2c1.03-0.34,3.01-1.18,5.59-2.3
						l12.67-5.5l-13.65,0.27c-3.96,0.08-9.21,0.18-14.41-0.4c-2.61-0.26-5.17-0.77-7.54-1.41c-2.35-0.68-4.49-1.54-6.2-2.53
						c1,0.62,2.03,1.23,2.19,1.4c0.07,0.09-0.08,0.1-0.59-0.03c-0.49-0.16-1.32-0.48-2.58-1.04c-1.86-0.98-3.9-2.4-5.72-4.26
						c-1.76-1.9-3.29-4.24-4.26-6.74c-0.99-2.51-1.44-5.18-1.57-7.66c-0.13-2.49,0.04-4.78,0.17-6.7c0.29-1.04,0.46-1.41,0.53-1.44
						c0.55-3.17,2.4-8.19,5.09-12.4c2.69-4.25,5.89-7.76,7.22-9.27c1.38-0.78,3.97-2.88,7.37-5.25c3.39-2.38,7.66-4.97,11.97-7.08
						c8.62-4.28,17.28-6.63,17.36-5.88c3.3-0.91,6.65-1.58,10.02-2.09c3.37-0.52,6.77-0.78,10.16-0.78l-0.53,0.15
						c6.49,0.04,10.79,0.83,13.97,1.62c0.81,0.16,1.53,0.39,2.21,0.6c0.68,0.21,1.33,0.37,1.92,0.58c0.59,0.22,1.15,0.43,1.69,0.63
						c0.55,0.2,1.09,0.39,1.59,0.65c2.52,1.57,0.57,0.61,0.32,0.56c0.5,0.3,0.98,0.59,1.45,0.87c0.45,0.31,0.87,0.64,1.29,0.94
						c0.42,0.31,0.82,0.6,1.22,0.89c0.29,0.24,0.49,0.44,0.73,0.66c0.41,0.42,1.09,0.76,0.72,1.26c-0.06,0.23-0.12,0.45-0.21,0.65
						c-0.11,0.27-0.22,0.54-0.32,0.8c-1.23,2.54-2.83,4.31-4.55,5.74c-1.75,1.4-3.66,2.55-6.09,3.29c-0.61,0.15-1.24,0.38-1.93,0.46
						c-0.34,0.05-0.69,0.13-1.05,0.17c-0.36,0.02-0.73,0.04-1.11,0.07c-0.41,0.04-0.6,0.01-0.91,0.01c-0.29-0.01-0.6-0.01-0.91-0.07
						c-0.16-0.02-0.32-0.05-0.48-0.07l-0.25-0.04l-0.13-0.02c-0.02-0.03-0.02-0.08-0.03-0.11c-0.07-0.32-0.14-0.65-0.21-0.99
						c0.17-0.47,0.32-0.87,0.5-1.2c0-0.15,0.03-0.46,0.06-0.84c0.01-0.37,0.13-0.8,0.24-1.28c0.22-0.96,0.69-2.11,1.38-3.37
						c1.43-2.5,3.99-5.34,7.46-7.77c1.74-1.22,3.62-2.34,5.76-3.32c1.05-0.51,2.11-1.04,3.23-1.48c1.11-0.45,2.21-0.95,3.36-1.33
						c4.55-1.68,9.35-2.91,13.95-3.74c-0.17,0.08-0.55,0.2-1.99,0.55c5.13-1.05,10.95-1.49,16.76-1.08
						c5.81,0.38,11.61,1.5,16.82,3.06c5.21,1.54,9.85,3.52,13.6,5.28c0.47,0.21,0.93,0.42,1.38,0.63c0.44,0.22,0.87,0.43,1.28,0.63
						c0.84,0.39,1.61,0.76,2.33,1.1c1.42,0.71,2.63,1.22,3.57,1.55c4.03,2.34,7.87,5.04,11.52,7.98c-0.86-0.74-1.61-1.38-2.25-1.94
						c-0.66-0.53-1.21-0.98-1.67-1.35c-0.91-0.76-1.45-1.22-1.72-1.45c-0.54-0.48,0.08-0.19,0.96,0.34
						c1.73,1.07,4.56,2.96,1.66,0.53c1.47,1.06,3.02,2.44,4.48,3.74c1.41,1.35,2.74,2.62,3.61,3.63c1.78,1.97,2.1,2.55-1.08-0.51
						c-0.31-0.35-0.64-0.67-0.95-1c-1.52-0.74,2.69,3.06,6.61,7.6c3.98,4.49,7.6,9.71,7.18,9.7c1.33,1.82,2.47,3.62,3.43,5.56
						c0.96,1.92,1.73,3.92,2.14,5.94c0.39,2.01,0.43,4.05-0.15,5.83c-0.19,0.42-0.3,0.89-0.56,1.27l-0.28,0.51l-0.29,0.38
						c-0.14,0.33-0.54,0.29-0.81,0.39l-0.67,0.17c-0.25,0.07-0.52,0.1-0.78,0.15c-8.32,1.57-17.2-0.55-23.9-5.42l-0.56-0.41
						c-0.13-0.09-0.23-0.18-0.34-0.27l-0.64-0.55c-0.3-0.4-1.17-0.77-0.41-1.18c0.88-0.81,1.46-1.24,3.58-2.01
						c3.64-1.2,7.8-0.92,11.35,0.55c1.78,0.74,3.42,1.77,4.75,3.09c1.37,1.34,2.51,2.91,3.4,4.63c1.78,3.44,2.53,7.41,2.41,11.32
						c0.14-0.6,0.24-1.2,0.36-1.82c0.07-0.61,0.17-1.24,0.22-1.86c0.37,3.71,0.02,7.54-1.17,11.09c-0.54,1.38-1.06,2.24-1.02,1.84
						c-0.03-0.42,0.75-2,1.43-5.87c-0.51,2.01-1.31,5.16-2.47,7.79c-1.09,2.63-2.3,4.72-2.3,4.87c-1.16,1.62-2.09,2.67-2.72,3.36
						c-0.64,0.68-0.98,1-1.1,1.05c-0.23,0.12,0.46-0.78,1.31-1.96c0.87-1.17,1.82-2.69,2.39-3.65c0.54-0.98,0.74-1.39,0.12-0.38
						c-1.14,1.83-2.45,3.57-3.89,5.22l1.03-1.07c-1.59,2.13-2.54,3.27-3.92,4.75c-1.42,1.44-3.25,3.31-7.37,6.1
						c-1.32,0.86-2.14,1.4-2.71,1.69c-0.57,0.28-0.84,0.38-1.01,0.42c-0.33,0.08-0.25-0.06-1.32,0.56
						c-0.01-0.03-0.19,0.06-0.69,0.35c-0.5,0.29-1.29,0.81-2.61,1.47l-3.24,1.63l-3.34,1.42c-1.1,0.5-2.25,0.89-3.39,1.29
						c-1.15,0.38-2.27,0.85-3.44,1.16c1.91-0.37,3.78-0.91,5.69-1.36c-1.5,0.61-3.07,1.2-4.46,1.72c-1.41,0.47-2.68,0.81-3.53,1.08
						c-1.71,0.53-1.82,0.65,1.53,0.03c-1.24,0.2-2.97,0.68-5.14,1.02c-1.08,0.18-2.25,0.44-3.51,0.64
						c-1.26,0.17-2.61,0.36-4.02,0.55c-5.65,0.65-12.38,0.86-18.93,0.18c-6.55-0.63-12.87-2.16-17.77-3.84
						c-2.43-0.91-4.58-1.68-6.21-2.47c-1.65-0.76-2.84-1.4-3.48-1.8c-4.06-1.93-7.84-4.42-11.05-7.81
						c-1.59-1.71-3.04-3.61-4.19-5.81c-1.16-2.18-2.05-4.62-2.51-7.26c0.17,1.32,0.31,2.4,0.03,2.03c-0.13-0.19-0.38-0.74-0.63-1.85
						c-0.23-1.11-0.53-2.79-0.37-5.16c0.3,0.88,0.48,0.22,0.8-1.27c0.34-1.49,0.9-3.86,2.31-6.16c1.37-2.31,3.63-4.45,6.11-5.36
						c2.44-0.96,4.98-0.55,6.39,0.16c-0.65-0.29-0.84-0.35-0.62-0.37c0.22,0,0.83,0.1,1.63,0.41c0.8,0.31,1.78,0.89,2.6,1.76
						c0.83,0.84,1.47,2.09,1.77,3.35c0.3,1.28,0.25,2.64,0.06,3.84c-0.24,1.19-0.54,2.22-0.8,2.92c-0.23,0.7-0.36,1.08-0.25,1.01
						c0.12-0.07,0.48-0.6,1.03-1.78c-0.68,1.8-1.24,2.65-1.51,3.06c-0.3,0.41-0.36,0.37-0.4,0.29c-0.04-0.09-0.05-0.23-0.25-0.04
						c-0.2,0.19-0.58,0.7-1.46,1.86c-1.26,1.93-2.73,3.73-4.5,5.54c-0.85,0.92-1.74,1.83-2.66,2.73c-0.9,0.91-1.84,1.8-2.8,2.69
						c-3.82,3.57-8,7.04-12.5,10.3c-8.97,6.56-19.18,12.37-29.98,17.09c-0.28,0.3,3.48-0.99-1.09,1.22c-3.97,1.27-7.98,2.31-12,2.8
						c-2.21,0.47-3.21,0.85-4.7,1.16c-1.47,0.28-3.53,0.61-7.57-0.12c0.56,0.13,1.27,0.32,1.47,0.39c0.2,0.09-0.14,0.17-1.64,0.02
						c-4.97-0.72-9.82-2.64-13.75-5.71c-1.96-1.53-3.69-3.35-5.02-5.42c-1.34-2.06-2.26-4.35-2.76-6.8c-0.5-2.45-0.63-5.01-0.56-7.6
						c0.08-2.59,0.31-5.24,0.72-7.79c0.81-5.09,2.59-10.05,6.11-13.61c3.46-3.61,8.31-5.81,13.36-6.68c5.07-0.88,10.37-0.54,15.32,1
						c5,1.5,9.71,3.93,14.16,6.79c2.23,1.43,4.39,2.97,6.53,4.57l1.59,1.21l0.92,0.73l1.54,1.27c-0.54,0.32-1.13,0.62-1.66,0.91
						c-0.27,0.15-0.53,0.27-0.81,0.4l-1.44,0.72c-1.07,0.56-2.18,1.03-3.28,1.52c-1.1,0.49-2.2,0.97-3.33,1.38
						c1.49-0.51,2.34-0.87,2.74-1c0.4-0.13,0.34-0.06-0.04,0.15c-0.74,0.46-2.83,1.32-5.06,2.27c2.93-1.14,0.1,0.43,0.75,0.41
						c-6.17,2.26-12.58,3.79-19.03,4.71c-1.69,0.68-6.92,1.44-11.98,1.67c-1.27,0.03-2.52,0.11-3.71,0.11c-1.19,0-2.3,0-3.3,0
						c-1.98-0.03-3.46-0.07-3.99,0.07l3.12,0.13c1.04,0.03,2.08,0,3.12,0c-4.15,0.3-1.28,0.82,2.56,1.22
						c0.96,0.08,1.98,0.16,2.96,0.24c0.98,0.07,1.92,0.09,2.73,0.15c1.61,0.11,2.67,0.25,2.39,0.51c4.69-0.93,10.92-1.61,17.77-3.39
						c1.7-0.49,3.47-0.91,5.21-1.54c0.88-0.3,1.76-0.61,2.65-0.91c0.87-0.36,1.76-0.72,2.64-1.08c1.78-0.7,3.5-1.62,5.24-2.5
						c0.86-0.46,1.69-0.98,2.54-1.48l0.77-0.46c0.28-0.17,0.56-0.33,0.83-0.51c0.55-0.34,1.07-0.71,1.58-1.06
						c2.06-1.12,1.36-0.61,0.33,0.1c-1.01,0.71-2.37,1.58-1.14,1c1.53-1.08,3.13-2.14,4.99-3.36c-1.85-1.32-3.81-2.79-6.15-4.53
						c-0.89-0.66-1.85-1.37-2.89-2.14c-1.01-0.75-2.11-1.54-3.32-2.39l0.89,0.48c-5.15-3.5-9.9-6.16-14.58-8.03
						c-4.66-1.87-9.34-2.97-14.16-3.09c-4.8-0.11-9.83,0.55-14.98,2.97c-2.55,1.21-5.12,2.9-7.38,5.28
						c-0.28,0.3-0.58,0.58-0.84,0.91c-0.26,0.33-0.52,0.66-0.78,1c-0.54,0.66-1.02,1.38-1.47,2.14c-0.9,1.51-1.67,3.15-2.29,4.9
						c0.39-0.64,0.8-1.27,1.23-1.87c-1.26,2.91-1.68,4.76-2.07,6.18c-0.36,1.43-0.6,2.45-0.84,3.88c-0.03,1.77,0.09,1.58,0.27,0.42
						c0.2-1.17,0.49-3.32,1.05-5.48c1.02-4.36,3.42-8.39,2.27-5.27c-1.1,1.76-2.47,5.37-3.12,9.85c-0.34,2.24-0.56,4.65-0.64,7.21
						c-0.07,2.55,0.05,5.25,0.58,7.91c0.51,2.66,1.51,5.27,2.85,7.49c1.33,2.23,2.96,4.08,4.56,5.56c3.21,2.98,6.22,4.5,7.4,5.35
						c1.12,0.51,1.95,0.8,2.53,0.99c0.58,0.2,0.91,0.29,1.09,0.31c0.34,0.05,0.02-0.12-0.3-0.29c-0.32-0.19-0.63-0.37-0.29-0.3
						c0.17,0.04,0.5,0.13,1.08,0.28c0.58,0.16,1.41,0.4,2.59,0.66c0.81,0.31,1.64,0.5,2.48,0.76c0.83-0.05,1.66-0.05,2.47-0.14
						c3.13,0.23,5.48,0.15,7.09,0.12c1.6-0.05,2.47-0.03,2.6,0.07c-1.51,0.22-4.31,0.62-5.97,0.66c2.07,0.05,4.55-0.17,7.1-0.62
						c2.55-0.45,5.16-1.15,7.54-1.94c4.77-1.58,8.64-3.45,9.91-3.94c-2.75,1.17-5.55,2.25-8.43,3.17c6.07-2.15,12.08-5.05,18.1-8.3
						c3-1.64,5.99-3.38,8.92-5.26c2.94-1.86,5.82-3.83,8.63-5.91c5.62-4.13,10.9-8.67,15.7-13.39c1.19-1.19,2.37-2.37,3.49-3.58
						c1.13-1.17,2.28-2.46,3.31-3.77c2.04-2.65,3.78-5.51,4.8-8.67c-0.26,0.62-0.62,1.18-0.94,1.76c1.96-4.52,1.87-8.57,0.61-11.26
						c-0.59-1.34-1.32-2.44-2.19-3.3c-0.85-0.86-1.78-1.51-2.77-2.04c-1.99-1.01-4.3-1.68-7.48-1.31c-1.59,0.2-3.38,0.78-5.16,1.89
						c-1.79,1.11-3.58,2.8-5.07,5.14l0.41-0.7c-1.2,1.87-2.26,4.27-2.78,6.97c-0.3,1.34-0.4,2.75-0.46,4.19
						c-0.01,1.44,0.1,2.89,0.31,4.34c-0.25-1.33-0.32-1.37-0.3-0.77c0,0.6,0.14,1.83,0.37,2.98c0.21,1.16,0.53,2.25,0.59,2.63
						c0.08,0.38-0.15,0.08-0.75-1.63c1.68,5.16,3.8,7.85,5.15,9.58c1.41,1.69,2.21,2.41,2.85,2.98c0.64,0.56,1.15,0.94,2.18,1.69
						c1.03,0.75,2.58,1.88,5.52,3.54c0.81,0.66,1.64,1.29,2.48,1.91c2.1,0.96,3.27,1.38,5.08,2.09c0.91,0.36,1.98,0.77,3.44,1.26
						c1.46,0.49,3.26,1.23,5.72,1.88c-2.03-0.51-2.66-0.64-2.61-0.56c0.04,0.11,0.77,0.41,1.47,0.69c1.4,0.56,2.68,1.17-1.9-0.05
						c1.26,0.5,2.52,0.87,3.72,1.28c0.61,0.2,1.2,0.39,1.79,0.58c0.6,0.15,1.18,0.29,1.76,0.44c1.16,0.28,2.28,0.54,3.37,0.8
						c1.1,0.18,2.17,0.35,3.21,0.52c2.07,0.37,4.03,0.48,5.87,0.62c1.84,0.19,3.58,0.11,5.22,0.15c1.64,0.05,3.19-0.07,4.67-0.13
						c0.74-0.03,1.46-0.06,2.16-0.09c0.7-0.04,1.39-0.12,2.07-0.17c1.35-0.12,2.66-0.17,3.93-0.27c1.27-0.13,2.52-0.21,3.78-0.26
						c1.21-0.3,1.81-0.57,1.97-0.69c0.16-0.12-0.13-0.13-0.73-0.05c-1.2,0.09-3.64,0.47-6.22,0.77c-1.3,0.11-2.62,0.23-3.85,0.34
						c-1.22,0.13-2.34,0.1-3.21,0.14c-1.74,0.05-2.48,0.06-1.1-0.04c-2.32-0.1-0.28-0.35,3.15-0.59c1.71-0.2,3.77-0.44,5.81-0.68
						c2.03-0.37,4.06-0.63,5.7-0.95c1.66-0.37,3.23-0.59,4.89-0.88c1.64-0.36,3.41-0.63,5.47-1.14c2.04-0.57,4.43-1.15,7.21-2.3
						c0.7-0.27,1.44-0.56,2.21-0.86c0.75-0.36,1.53-0.73,2.34-1.12c0.81-0.4,1.66-0.82,2.56-1.26c0.86-0.51,1.75-1.03,2.69-1.59
						c-1.5,0.87-1.55,1.03-3.06,1.87c1.46-0.73,2.84-1.58,4.24-2.42c1.4-0.85,2.69-1.88,4.07-2.85c2.74-2,5.47-4.3,8.49-7.01
						c1.38-1.83,3.11-3.8,4.43-5.61c1.33-1.8,2.24-3.41,2.23-4.17c-2.66,4.7-6.25,8.77-10.21,12.32c3.33-3.07,6.21-6.48,8.85-10.87
						c1.3-2.21,2.51-4.68,3.52-7.54c0.49-1.44,0.93-2.98,1.23-4.63c0.33-1.65,0.52-3.41,0.56-5.29c0.09,0.58,0.18,2,0.05,3.66
						c-0.03,0.83-0.18,1.71-0.29,2.59c-0.17,0.86-0.31,1.72-0.54,2.47c0.75-2.11,1.1-4.26,1.23-6.42c0.12-2.17,0.02-4.36-0.24-6.67
						c0.23,0.29,0.6,1.69,0.72,3.8c0.13,2.11-0.04,4.93-0.77,7.92c-0.7,3.02-2.01,6.08-3.55,8.85c-1.54,2.77-3.34,5.21-4.85,7.18
						c0.86-0.84,1.98-2.22,3.08-3.79c1.09-1.58,2.1-3.39,2.87-4.97c0.38-0.79,0.71-1.52,0.96-2.15c0.27-0.61,0.47-1.11,0.6-1.43
						c0.28-0.64,0.36-0.55,0.11,0.73c0.85-3.61,1.97-8,1.77-13.15c-0.1-2.56-0.55-5.29-1.56-8.01c-0.49-1.36-1.18-2.69-1.97-3.99
						c-0.86-1.26-1.8-2.5-2.98-3.56l0.92,0.3c-0.36-0.36-0.81-0.82-1.36-1.32c-0.6-0.46-1.21-1.06-1.98-1.52
						c-1.46-1.05-3.27-1.88-5-2.54c2.17,0.58,4.29,1.52,6.23,2.86c-4.34-3.22-9.34-4.77-14.41-4.71c-2.53,0.05-5.11,0.55-7.5,1.67
						c-0.26,0.13-0.71,0.29-1.09,0.56l-1.16,0.79c-0.37,0.27-0.8,0.51-1.13,0.81l-0.97,0.92c-0.65,0.6-1.27,1.26-1.89,1.92
						l-0.46,0.49l-0.23,0.25l-0.11,0.12c-0.07,0.04,0.05,0.08,0.06,0.12l0.93,0.97c-0.31-0.34-0.62-0.67-0.91-0.99
						c-0.14-0.08,0.04-0.16,0.09-0.24l0.23-0.24c0.15-0.16,0.3-0.31,0.45-0.47c0.59-0.61,1.13-1.2,1.67-1.69c0.55-0.5,1-1,1.53-1.4
						c0.56-0.38,1.09-0.74,1.58-1.07c0.25-0.16,0.47-0.34,0.72-0.47c0.21-0.1,0.41-0.2,0.61-0.29c0.33-0.15,0.63-0.28,0.9-0.41
						c0.56-0.24,1.04-0.36,1.43-0.49c0.78-0.26,1.24-0.29,1.47-0.31c0.24-0.01,0.26,0.03,0.18,0.09c-0.15,0.13-0.66,0.36-0.58,0.45
						c0.04,0.04,0.22,0.05,0.67,0c0.22-0.03,0.51-0.07,0.88-0.13c0.37-0.05,0.82-0.07,1.36-0.12c-0.39,0.06-0.78,0.12-1.15,0.18
						c-0.37,0.08-0.73,0.18-1.09,0.27c-0.71,0.15-1.37,0.41-2,0.64c-0.64,0.2-1.2,0.53-1.75,0.79c-0.32,0.14-0.65,0.33-0.95,0.55
						c-0.31,0.21-0.61,0.41-0.9,0.61c-0.62,0.37-1.08,0.82-1.53,1.24c-0.46,0.42-0.9,0.8-1.29,1.23c-0.4,0.41-0.79,0.81-1.15,1.18
						c-0.08,0.05-0.01,0.09,0.03,0.14l0.13,0.14l0.25,0.27c0.16,0.18,0.32,0.35,0.48,0.52c0.61,0.68,1.16,1.31,1.8,1.86
						c0.61,0.57,1.17,1.1,1.7,1.6c0.45,0.38,0.88,0.73,1.3,1.08c0.37,0.33,0.76,0.62,1.15,0.92c0.39,0.3,0.79,0.59,1.21,0.91
						c0.44,0.28,0.9,0.58,1.4,0.89c0.49,0.33,1.05,0.61,1.67,0.93c0.31,0.16,0.63,0.32,0.97,0.49c0.35,0.15,0.71,0.3,1.1,0.47
						c3.05,1.22,7.57,2.76,14.63,2.37c-1.9,0.21-5.49-0.03-7.78-0.55c-1.15-0.22-1.97-0.5-2.16-0.6c-0.18-0.12,0.27-0.03,1.72,0.16
						c2.58,0.52,5.65,0.81,8.48,0.68c1.41-0.08,2.77-0.17,3.96-0.36c0.6-0.07,1.16-0.16,1.67-0.27c0.79-0.17,1.52-0.33,2.15-0.47
						l0.33-0.09c0.1-0.05,0.14-0.17,0.22-0.25c0.13-0.18,0.27-0.36,0.4-0.53c0.26-0.35,0.51-0.68,0.75-1.01
						c0.25-0.31,0.41-0.67,0.56-0.93c0.13-0.25,0.26-0.49,0.38-0.72c0.4-0.95,0.7-1.77,0.83-2.46c0.18-0.69,0.23-1.24,0.26-1.67
						c0.03-0.43,0.07-0.74,0.05-0.94c-0.06-0.81-0.07-0.05-0.31,1.09c-0.18,1.14-0.73,2.62-1.09,3.22c-0.16,0.31-0.25,0.41-0.2,0.18
						c0.03-0.12,0.08-0.32,0.18-0.62c0.09-0.3,0.25-0.71,0.34-1.25c0.6-1.67,0.67-3.19,0.59-4.54c-0.04-0.68-0.13-1.33-0.27-1.95
						c-0.11-0.64-0.31-1.23-0.5-1.84c-0.4-1.21-0.92-2.42-1.6-3.73c-0.66-1.33-1.49-2.76-2.54-4.41l0.38-0.3
						c-0.66-1.12-1.29-2.06-1.86-2.86c-0.57-0.81-1.06-1.54-1.51-2.16c-0.93-1.23-1.64-2.12-2.18-2.78
						c-1.13-1.29-1.61-1.67-2.04-2.01c-0.44-0.33-0.8-0.64-1.82-1.68c-1.01-1.05-2.59-2.9-5.69-6.1c0.99,0.79,1.94,1.62,2.88,2.47
						c0.96,0.83,1.89,1.69,2.8,2.58c-2.08-2.33-4.31-4.51-6.59-6.64l1.76,0.96c-3.78-3.45-6.4-5.53-9.01-7.58
						c-0.65-0.51-1.31-1.02-1.98-1.55c-0.69-0.5-1.4-1.02-2.15-1.57c-0.74-0.56-1.56-1.12-2.44-1.71c-0.89-0.59-1.82-1.26-2.9-1.9
						c0.91,0.74,0.51,0.76-1.06,0.03c-0.78-0.38-1.86-0.91-3.25-1.58c-0.7-0.33-1.45-0.74-2.3-1.14c-0.85-0.4-1.77-0.83-2.77-1.3
						c-2.69-1.35-1.88-1.1-1.82-1.16c0.03-0.03-0.13-0.12-1.03-0.52c-0.89-0.41-2.53-1.05-5.5-2.07c1.4,0.28,2.83,0.7,4.57,1.25
						c1.7,0.65,3.7,1.47,6.05,2.89c0.59,0.08,2.63,1,3.21,1.15c-2.78-1.74-6.53-3.49-10.15-4.86c-0.91-0.33-1.81-0.66-2.67-0.97
						c-0.88-0.27-1.73-0.54-2.54-0.79c-1.6-0.53-3.05-0.82-4.16-1.14c0.85,0.24,1.78,0.51,2.63,0.75c0.85,0.26,1.59,0.55,2.1,0.74
						c-5.9-1.65-11.94-2.68-18.01-2.96c-2.85-0.35-0.57-0.42,1.7-0.3c-3.7-0.31-6.27-0.32-11.7-0.1c0.7-0.22,0.96-0.42,2.02-0.63
						c0.53-0.12,1.26-0.17,2.34-0.22c1.08-0.06,2.52-0.09,4.47,0.02c-5.86-0.27-11.73,0.07-17.5,1.07c-0.6-0.04-2.83,0.29-4.65,0.5
						c-1.8,0.31-3.19,0.54-2.09,0.2c-4.8,1.03-10.51,3.15-16.13,6.28c-2.88,1.55-5.67,3.57-8.21,5.89
						c-2.51,2.36-4.82,5.08-6.39,8.36c-0.07,0.18-0.15,0.4-0.25,0.67c-0.09,0.29-0.19,0.63-0.32,1.04
						c-0.14,0.41-0.28,0.89-0.39,1.48c-0.13,0.58-0.27,1.25-0.32,2.04c-0.04,0.37-0.16,1.02-0.09,1.6c0.03,0.59,0.05,1.18,0.08,1.77
						c0.01,0.59,0.13,1.17,0.2,1.76l0.11,0.88l0.06,0.44c0.11,0.06,0.27,0.07,0.41,0.11c1.14,0.25,2.24,0.59,3.42,0.71l1.75,0.25
						c0.5,0.02,0.85,0.01,1.29,0.01c3.31-0.01,6.53-0.92,9.45-2.52c2.92-1.57,5.55-3.9,7.49-6.98c0.26-0.37,0.48-0.77,0.68-1.19
						c0.21-0.41,0.43-0.82,0.61-1.25c0.2-0.55,0.41-1.1,0.62-1.66c0.19-0.65,0.34-1.32,0.5-1.99l0.24-1l0.12-0.5
						c-0.04-0.14-0.22-0.22-0.33-0.34c-0.49-0.43-0.98-0.85-1.48-1.29c-0.49-0.43-0.99-0.86-1.49-1.29l-0.37-0.32l-0.19-0.16
						l-0.14-0.1l-0.58-0.39c-1.08-0.92-2.16-1.87-3.36-2.63c-0.59-0.4-1.17-0.84-1.79-1.2l-1.87-1.05c-0.67-0.31-1.23-0.53-1.7-0.66
						c-0.46-0.14-0.81-0.25-1.06-0.33c-0.51-0.14-0.64-0.15-0.55-0.06c0.18,0.16,1.26,0.67,2.11,1.1c0.82,0.5,1.4,0.9,0.69,0.69
						c-0.18-0.05-0.44-0.14-0.8-0.28c-0.37-0.11-0.84-0.26-1.43-0.44c-0.59-0.18-1.29-0.44-2.14-0.67c-0.86-0.21-1.85-0.46-3-0.75
						c-1.65-0.27-2.96-0.57-4-0.69c-1.05-0.13-1.83-0.24-2.4-0.34c-1.15-0.17-1.5-0.24-1.57-0.36c-0.15-0.21,0.8-0.41-1.55-0.65
						c-3.35,0.04-7.88,0.4-12.99,1.26c-5.11,0.84-10.81,2.18-16.59,3.75C144.21,68.34,147.26,67.59,150.91,66.79z M134.46,147.71
						c-2.62,0.07-7.94,0.04-9.85-0.52C127.68,146.99,129.97,147.41,134.46,147.71z M167.41,252c-0.93,0.31-2.17,0.48-3.57,0.7
						c-0.71,0.1-1.46,0.2-2.24,0.3c-0.79,0.05-1.62,0.11-2.47,0.16C161.58,252.9,164.33,252.44,167.41,252z M94.88,68.45
						c0.11,0,0.19-0.01,0.28-0.01C100.93,68.9,98.88,68.73,94.88,68.45z M83.03,68.03c-1.18,0.1-1.09,0.18-0.59,0.22
						c0.81-0.15,3.45-0.24,6.48-0.12C88.08,67.99,86.54,67.84,83.03,68.03z M270.28,166.17l2.03-1.06c-2.18,1.38-2.98,1.87-3.1,1.87
						C269.11,167.01,269.71,166.61,270.28,166.17z"/>
					<path class="st0" d="M144.15,254.41c-0.74-0.12-0.94-0.23-1.11-0.33C142,254.1,141.96,254.19,144.15,254.41z"/>
					<path class="st0" d="M173.21,81.59l0.21-0.43c0.08-0.25,0.12-0.39,0.12-0.47L173.21,81.59z"/>
					<path class="st0" d="M267.28,90.06c2.31,0.95,3.57,1.54,4.4,1.95C271.84,91.95,270.83,91.44,267.28,90.06z"/>
					<path class="st0" d="M33.76,99.71c0.99-2.04,2.32-4,3.85-5.88c-2.2,2.72-2.87,3.7-3.78,5.14C34,98.89,34.76,97.82,33.76,99.71z
						"/>
					<path class="st0" d="M55.44,157.46c0.56,0.98,1.1,2.12,1.65,3.09l0.07-0.38c-1.09-2.14-2.08-3.92-2.54-4.61
						C54.18,154.87,54.32,155.25,55.44,157.46z"/>
					<path class="st0" d="M30.3,105.33c-0.11,0.13-0.21,0.51-0.3,1.1c-0.05,0.29-0.09,0.63-0.13,1.02c-0.03,0.39,0,0.82,0.01,1.28
						c0,1.87,0.46,4.3,1.3,6.76c-0.1-0.3-0.19-0.58-0.28-0.88C31.93,115.91,29.72,110.73,30.3,105.33z"/>
					<path class="st0" d="M31.55,116.63c0.31,0.75,0.62,1.5,0.92,2.25c0.34,0.74,0.69,1.47,1.02,2.19c0.24,0.22,0.03-0.22-0.38-1.05
						c-0.2-0.42-0.49-0.92-0.75-1.5C32.12,117.93,31.84,117.29,31.55,116.63z"/>
					<path class="st0" d="M68.64,70.47c-2.33,0.66-1.27,0.96-2.59,1.29c-0.58,0.36,0.05,0.15,1.13-0.3c0.55-0.2,1.21-0.45,1.89-0.71
						c0.7-0.22,1.4-0.5,2.05-0.69c1.29-0.42,2.29-0.69,2.14-0.73C73.13,69.32,71.79,69.44,68.64,70.47z"/>
					<path class="st0" d="M28.84,109.5l0.44-1.92l-0.08-1.49c-0.03-0.5-0.07-1.01-0.01-1.51C28.88,106.2,28.78,107.85,28.84,109.5z"
						/>
					<path class="st0" d="M52.81,76.45c-2.34,1.64-4.59,3.42-6.77,5.29c0.16-0.02-0.64,0.73-1.59,1.67
						c1.95-1.79,4.08-3.57,5.71-4.86C51.8,77.27,52.93,76.46,52.81,76.45z"/>
					<path class="st0" d="M44.45,83.42c-2.03,1.86-3.9,3.72-4.91,4.87C40.57,87.22,42.86,84.96,44.45,83.42z"/>
					<path class="st0" d="M31.13,98.06c0.43-0.74,0.89-1.46,1.38-2.16c1.11-1.7,2.38-3.3,3.73-4.81
						C34.31,93.22,32.51,95.5,31.13,98.06z"/>
					<path class="st0" d="M142.92,69.24l9.39,0.56c0.97-0.1-1.58-0.4-5.08-0.6C144.98,69.14,141.49,68.98,142.92,69.24z"/>
					<path class="st0" d="M114.59,66.18c2.54,0.24,2.7,0.35,4.13,0.6l0.32-0.6L114.59,66.18z"/>
					<path class="st0" d="M142.01,67.66c0.95-0.13,13.67,0.51,1.76-0.34C142.8,67.43,133.38,66.92,142.01,67.66z"/>
					<path class="st0" d="M280.21,97.06c-0.73-0.33-1.47-0.61-2.21-0.92l-0.08,1.07C278.68,97.16,279.45,97.09,280.21,97.06z"/>
					<path class="st0" d="M348.93,188.37c2.07-5.45,1.93-6.23,1.94-6.79c-0.01-0.29-0.03-0.54,0.13-1.35
						c0.08-0.41,0.19-0.95,0.37-1.72c0.14-0.77,0.31-1.77,0.54-3.07c0.09-1.37-0.3,0.75-0.68,2.85c-0.52,2.07-1.06,4.11-0.85,2.73
						c-0.28,1.73-0.79,3.18-1.11,4.41c-0.32,1.24-0.69,2.17-0.9,2.84C347.96,189.6,348.04,189.76,348.93,188.37z"/>
					<path class="st0" d="M350.39,181.03c0.19-1.1,0.48-2.25,0.59-3.5C350.7,179.53,350.46,180.45,350.39,181.03z"/>
					<path class="st0" d="M109.48,164.31c-2.33,0.05-4.66-0.09-6.97-0.23c1.49,0.18,2.99,0.28,4.5,0.43
						C107.83,164.46,108.65,164.37,109.48,164.31z"/>
					<path class="st0" d="M96.01,164.53l-1.56-0.82l-4.25-0.07C91.77,163.85,94.82,164.31,96.01,164.53z"/>
					<path class="st0" d="M121.52,148.62l-0.44,0.37c1.1-0.3,2.66-0.97,5.8-2.26C125.09,147.34,123.31,147.97,121.52,148.62z"/>
					<path class="st0" d="M100.84,94.96L99.8,96.4c0.82-0.78,1.55-1.6,2.42-2.31C101.74,94.36,101.28,94.65,100.84,94.96z"/>
					<path class="st0" d="M176.83,64.49c-3.54-0.6-7.72-0.71-11.25-0.66c1.92-0.02,3.64-0.04,5.13,0.14
						c0.74,0.07,1.43,0.14,2.05,0.2c0.62,0.08,1.18,0.19,1.66,0.27C176.37,64.74,177.25,64.93,176.83,64.49z"/>
				</g>
			</g>
		</g>
	</g>
</g>
<rect x="45.11" y="45.62" class="st1" width="71.36" height="71.36"/>
<linearGradient id="SVGID_1_" gradientUnits="userSpaceOnUse" x1="242.1942" y1="213.5825" x2="336.8544" y2="213.5825">
	<stop  offset="0" style="stop-color:#95C11F"/>
	<stop  offset="1" style="stop-color:#F9B233"/>
</linearGradient>
<ellipse class="st2" cx="289.52" cy="213.58" rx="47.33" ry="46.6"/>
</svg>
